<?xml version="1.0" standalone="no"?>
<!DOCTYPE svg PUBLIC "-//W3C//DTD SVG 20010904//EN"
 "http://www.w3.org/TR/2001/REC-SVG-20010904/DTD/svg10.dtd">
<svg version="1.0" xmlns="http://www.w3.org/2000/svg"
 width="1088.000000pt" height="1088.000000pt" viewBox="0 0 1088.000000 1088.000000"
 preserveAspectRatio="xMidYMid meet">
<metadata>
Created by potrace 1.14, written by Peter Selinger 2001-2017
</metadata>
<g transform="translate(0.000000,1088.000000) scale(0.100000,-0.100000)"
fill="#000000" stroke="none">
<path d="M2803 5916 l-2803 -2803 530 -529 c292 -291 533 -531 535 -533 3 -3
1024 1014 2270 2260 1246 1245 2270 2263 2276 2261 6 -2 248 -239 536 -527
289 -289 526 -525 529 -525 5 0 1064 1058 1064 1064 0 3 -2081 2086 -2116
2118 -18 16 -146 -111 -2821 -2786z"/>
<path d="M9273 7123 c-7 -3 -13 -8 -13 -12 0 -5 -200 -211 -205 -211 -4 0
-195 -195 -196 -199 -1 -3 -54 -55 -119 -116 -65 -60 -118 -114 -119 -120 -1
-5 -20 -23 -41 -40 -21 -16 -40 -34 -41 -40 -1 -5 -54 -59 -118 -120 -64 -60
-161 -158 -216 -216 -55 -59 -102 -107 -105 -108 -7 -1 -280 -273 -281 -281
-1 -3 -73 -72 -159 -155 -86 -82 -158 -152 -159 -156 -1 -7 -203 -209 -210
-210 -4 -1 -55 -54 -116 -119 -60 -65 -114 -118 -120 -119 -5 -1 -23 -20 -40
-41 -16 -21 -34 -40 -40 -41 -5 -1 -59 -54 -120 -119 -60 -65 -113 -118 -116
-119 -3 0 -49 -45 -101 -98 l-96 -97 -511 512 c-282 282 -517 512 -522 512 -6
0 -248 -238 -539 -529 l-529 -528 1051 -1051 1051 -1051 1905 1905 1905 1905
-89 93 c-49 51 -99 98 -111 106 -13 7 -22 15 -20 16 2 3 -836 844 -846 850 -1
1 -8 -1 -14 -3z"/>
<path d="M9272 3986 l-533 -533 531 -532 c293 -292 535 -531 538 -531 4 0 245
239 536 530 442 442 527 532 517 544 -12 14 -1053 1056 -1055 1056 -1 0 -241
-240 -534 -534z"/>
</g>
</svg>
