<svg width="103" height="22" viewBox="0 0 103 22" fill="none" xmlns="http://www.w3.org/2000/svg">
<path d="M30.6468 13.873L33.9846 17.2108L30.6468 20.5485L27.3091 17.2108L30.6468 13.873Z" fill="#BE264C"/>
<path d="M17.5231 0.749268L0 18.2723L3.33773 21.6101L17.5231 7.42472L20.8612 10.7629L24.1989 7.42515L17.5231 0.749268Z" fill="#BE264C"/>
<path d="M32.3536 9.05608L29.0159 5.71835L20.444 14.2902L17.2165 11.0627L13.8788 14.4004L20.444 20.9657L32.3536 9.05608Z" fill="#BE264C"/>
<path d="M46.6635 17.426L45.282 21.0365H41.0023L48.4241 2.1013H52.8664L60.1799 21.0365H55.8731L54.5458 17.426H46.6635ZM47.8011 14.0027H53.3811L50.6182 6.19323L47.8011 14.0027Z" fill="white"/>
<path d="M65.4351 8.70722C66.0129 8.02969 66.6269 7.52154 67.277 7.18278C67.9451 6.84401 68.7397 6.67463 69.6606 6.67463C69.8954 6.67463 70.1211 6.68354 70.3378 6.70137C70.5545 6.7192 70.7532 6.74595 70.9337 6.78161V10.2584C70.5184 10.2584 70.094 10.2673 69.6606 10.2852C69.2453 10.2852 68.848 10.3208 68.4688 10.3921C68.0896 10.4634 67.7194 10.5793 67.3582 10.7398C67.0151 10.8824 66.7081 11.0964 66.4373 11.3817C66.0219 11.8453 65.7601 12.3445 65.6517 12.8794C65.5615 13.4143 65.5163 14.0205 65.5163 14.698V21.0365H61.697V6.94208H65.2184L65.4351 8.70722Z" fill="white"/>
<path d="M78.6098 10.2317V15.9283C78.6098 17.1407 79.2328 17.7469 80.4788 17.7469H81.8873V21.0365H80.0996C78.2035 21.1078 76.8401 20.7512 76.0094 19.9667C75.1968 19.1822 74.7905 17.9965 74.7905 16.4097V10.2317H72.6235V6.94208H74.7905V3.1176H78.6098V6.94208H82.0227V10.2317H78.6098Z" fill="white"/>
<path d="M86.1884 0.389648C86.8927 0.389648 87.4615 0.59469 87.8949 1.00477C88.3283 1.41486 88.545 1.95867 88.545 2.63619C88.545 3.34938 88.3283 3.91102 87.8949 4.32111C87.4615 4.71336 86.8927 4.90949 86.1884 4.90949C85.5022 4.90949 84.9334 4.71336 84.482 4.32111C84.0486 3.91102 83.8319 3.34938 83.8319 2.63619C83.8319 1.95867 84.0486 1.41486 84.482 1.00477C84.9334 0.59469 85.5022 0.389648 86.1884 0.389648ZM88.1116 21.0365H84.2923V6.94208H88.1116V21.0365Z" fill="white"/>
<path d="M96.6049 9.67002C96.334 9.67002 96.0722 9.68785 95.8194 9.72351C95.5846 9.75917 95.3679 9.82158 95.1693 9.91073C94.9707 9.98205 94.8081 10.1069 94.6817 10.2852C94.5553 10.4456 94.5012 10.6596 94.5192 10.927C94.5373 11.2301 94.6546 11.4708 94.8713 11.6491C95.1061 11.8274 95.4311 11.9701 95.8465 12.077C96.2438 12.184 96.6862 12.291 97.1737 12.398C97.6613 12.4871 98.1399 12.5852 98.6094 12.6922C99.0789 12.7991 99.5394 12.924 99.9908 13.0666C100.442 13.2092 100.84 13.3875 101.183 13.6015C101.652 13.8868 102.04 14.2879 102.347 14.805C102.654 15.3221 102.799 15.955 102.781 16.7039C102.781 17.4349 102.654 18.0678 102.402 18.6027C102.167 19.1198 101.842 19.5655 101.426 19.94C100.903 20.4035 100.244 20.7423 99.4491 20.9562C98.6545 21.1524 97.8509 21.2504 97.0383 21.2504C96.0993 21.2504 95.2325 21.1524 94.4379 20.9562C93.6614 20.7601 92.9482 20.4124 92.2981 19.9132C91.8286 19.5388 91.4313 19.0841 91.1062 18.5492C90.7992 17.9965 90.6187 17.3368 90.5645 16.5701H94.4109C94.5192 17.1763 94.8172 17.5953 95.3047 17.8271C95.8104 18.0589 96.4063 18.1748 97.0925 18.1748C97.2911 18.1748 97.4988 18.1659 97.7155 18.1481C97.9502 18.1124 98.1579 18.0589 98.3385 17.9876C98.5371 17.8984 98.6997 17.7736 98.8261 17.6132C98.9705 17.4349 99.0428 17.2477 99.0428 17.0515C99.0608 16.588 98.8983 16.2581 98.5552 16.062C98.2301 15.8659 97.878 15.7321 97.4988 15.6608C97.1196 15.5717 96.7133 15.4825 96.2799 15.3934C95.8465 15.3042 95.4131 15.2151 94.9797 15.1259C94.5644 15.0368 94.149 14.9298 93.7337 14.805C93.3183 14.6624 92.9391 14.4751 92.596 14.2434C92.0723 13.9224 91.6299 13.4945 91.2688 12.9596C90.9257 12.4247 90.7812 11.7204 90.8354 10.8468C90.8715 10.0801 91.0611 9.42932 91.4042 8.89443C91.7654 8.34171 92.2078 7.90488 92.7315 7.58395C93.2732 7.24518 93.8782 7.00448 94.5463 6.86184C95.2325 6.7192 95.9277 6.64788 96.632 6.64788C97.4085 6.64788 98.1399 6.72812 98.8261 6.88859C99.5123 7.04905 100.108 7.30759 100.614 7.66418C101.138 8.02077 101.553 8.48435 101.86 9.0549C102.185 9.62545 102.365 10.3208 102.402 11.141H98.7177C98.6455 10.5526 98.4107 10.1603 98.0135 9.96422C97.6342 9.76809 97.1647 9.67002 96.6049 9.67002Z" fill="white"/>
</svg>
